<svg version="1.1" id="Layer_1" xmlns="http://www.w3.org/2000/svg" xmlns:xlink="http://www.w3.org/1999/xlink" x="0px" y="0px"
	 width="100%" viewBox="0 0 1024 1024" enable-background="new 0 0 1024 1024" xml:space="preserve">
<path fill="#000000" opacity="1.000000" stroke="none" 
	d="
M714.490784,509.636841 
	C716.408203,514.247986 718.168823,518.507141 720.214783,523.456604 
	C723.368774,518.485474 724.698975,513.679199 726.587769,509.149902 
	C730.301880,500.243103 733.903870,491.285004 737.314758,482.258423 
	C738.592285,478.877319 740.203857,477.079956 744.184448,477.440094 
	C747.965271,477.782166 751.822876,477.245911 755.647888,477.136322 
	C758.694214,477.049072 760.214172,478.402710 760.205994,481.621033 
	C760.154236,502.102020 760.156738,522.583252 760.201477,543.064209 
	C760.208557,546.285278 758.782227,547.431824 755.628601,547.379089 
	C739.646851,547.112122 742.197144,549.415771 742.049316,534.600220 
	C741.969604,526.613403 742.035095,518.625183 741.406189,510.435303 
	C737.431519,521.033508 733.030884,531.497986 729.643494,542.280701 
	C727.643616,548.646484 723.185730,547.038025 718.938599,547.400330 
	C714.878662,547.746765 712.689575,546.377319 711.275452,542.276001 
	C707.510498,531.357056 703.206360,520.624023 698.339905,509.974335 
	C698.339905,520.570923 698.165710,531.171692 698.422974,541.762024 
	C698.530457,546.186890 696.984802,547.544434 692.648132,547.423584 
	C678.421143,547.027039 680.815430,549.152954 680.697021,535.611694 
	C680.544128,518.129028 680.796936,500.642273 680.573486,483.161133 
	C680.516052,478.666107 681.785278,477.040527 686.432556,477.016144 
	C701.102966,476.939240 701.114563,476.771240 706.665161,490.314056 
	C709.251770,496.625183 711.779541,502.960449 714.490784,509.636841 
z"/>
<path fill="#000000" opacity="1.000000" stroke="none" 
	d="
M288.997772,547.365234 
	C282.506683,547.358582 276.512665,547.245911 270.524506,547.385010 
	C267.163147,547.463013 265.716644,546.234680 265.729370,542.756470 
	C265.804138,522.285583 265.791656,501.814178 265.712555,481.343292 
	C265.700867,478.316772 267.007477,477.129395 269.868378,477.131104 
	C281.014404,477.137695 292.176178,476.651093 303.292297,477.760986 
	C311.715332,478.601959 317.957947,483.648712 319.888550,490.796600 
	C321.958771,498.461365 319.439392,504.991302 312.353119,510.277466 
	C311.958649,510.571686 311.477020,510.748993 310.475067,511.275482 
	C319.232086,515.465515 322.842804,522.076416 321.907684,530.613159 
	C320.851990,540.250610 313.012115,546.692383 302.476593,547.261841 
	C298.160919,547.495117 293.824371,547.341919 288.997772,547.365234 
M283.869232,525.215454 
	C283.466919,532.784363 283.466949,532.792725 291.096741,532.775513 
	C293.261475,532.770630 295.446259,532.873108 297.586212,532.622314 
	C301.090668,532.211670 303.420929,530.424927 303.772064,526.617065 
	C304.110229,522.949951 302.597168,520.576904 299.140289,519.299194 
	C296.069702,518.164368 292.869812,518.719910 289.755341,518.346436 
	C284.867249,517.760254 282.944458,519.625061 283.869232,525.215454 
M284.027466,503.869080 
	C287.549042,506.806549 291.577301,504.774872 295.358765,504.934326 
	C299.391663,505.104401 302.294312,503.020752 302.334412,498.862518 
	C302.375366,494.613617 299.695770,492.480499 295.374146,492.020142 
	C284.040894,490.812958 282.920654,491.821808 284.027466,503.869080 
z"/>
<path fill="#000000" opacity="1.000000" stroke="none" 
	d="
M385.891357,540.993774 
	C361.541840,557.274536 332.147217,544.666931 328.317932,516.074463 
	C325.376953,494.115021 342.400574,475.807892 364.813141,476.346558 
	C380.669495,476.727722 393.473572,486.090302 398.066132,499.897034 
	C403.125122,515.106018 398.653168,530.479370 385.891357,540.993774 
M353.864319,528.762146 
	C365.414856,535.318909 377.585693,530.945740 380.978607,518.789551 
	C382.526855,513.242371 382.312347,507.571259 379.869690,502.206879 
	C377.031525,495.973938 371.824524,492.873383 365.262177,492.533112 
	C358.805176,492.198242 353.025055,494.252533 349.388977,500.079895 
	C344.415253,508.050995 345.062714,522.542847 353.864319,528.762146 
z"/>
<path fill="#000000" opacity="1.000000" stroke="none" 
	d="
M519.556885,519.261536 
	C517.822205,522.111633 520.092712,523.788635 521.125793,525.664673 
	C524.876343,532.475525 528.827332,539.176025 533.333618,547.015808 
	C526.390137,547.498230 520.531921,547.580872 514.681152,547.019165 
	C512.828674,546.841309 512.329163,544.828186 511.536896,543.397461 
	C507.986694,536.986084 504.466431,530.558167 500.925293,524.141785 
	C500.210480,522.846619 499.615540,521.152832 497.707764,521.621399 
	C495.745850,522.103271 496.136017,523.962891 496.121185,525.380310 
	C496.061920,531.044922 496.026672,536.711792 496.127716,542.375244 
	C496.190613,545.901062 494.880646,547.462769 491.125854,547.385620 
	C475.738678,547.069397 478.145874,549.301819 478.020630,534.554871 
	C477.876251,517.559998 478.072052,500.562073 477.902557,483.567657 
	C477.856506,478.951691 479.037872,477.099976 484.162598,477.425720 
	C492.793701,477.974426 501.485748,477.471893 510.145721,477.679596 
	C525.224243,478.041260 534.196167,488.477173 532.317383,503.362610 
	C531.345032,511.066589 526.380005,515.735474 519.556885,519.261536 
M512.220154,494.191833 
	C511.194061,493.661133 510.223389,492.922333 509.133270,492.632111 
	C499.153137,489.975128 496.155731,492.140320 496.139526,501.912170 
	C496.127686,509.054291 496.127655,509.054321 505.060974,508.643951 
	C513.755859,508.244476 517.052063,502.297058 512.220154,494.191833 
z"/>
<path fill="#000000" opacity="1.000000" stroke="none" 
	d="
M551.007996,547.341980 
	C542.653809,547.284241 542.644775,547.284241 542.642639,539.458130 
	C542.637451,520.795105 542.767456,502.130585 542.552063,483.470062 
	C542.499390,478.904572 543.894531,477.396973 548.496704,477.532349 
	C561.937439,477.927704 560.130920,475.896942 560.303040,489.181610 
	C560.350525,492.846985 560.482788,496.523285 560.268311,500.176544 
	C560.057739,503.763184 561.628540,504.833557 565.000427,504.714050 
	C570.326111,504.525269 575.667419,504.532379 580.994141,504.704895 
	C584.424133,504.815979 585.761841,503.541809 585.701355,500.054169 
	C585.580017,493.063568 585.770386,486.067444 585.858337,479.073914 
	C585.861938,478.782867 586.130432,478.495148 586.652039,477.455139 
	C591.048950,477.455139 595.833984,477.452057 600.619019,477.456543 
	C602.910461,477.458679 603.300049,478.986725 603.300049,480.823090 
	C603.299805,501.818817 603.284180,522.814514 603.321899,543.810181 
	C603.326477,546.384888 602.179260,547.364075 599.685974,547.333313 
	C582.579407,547.122131 586.144958,549.510681 585.601318,534.546753 
	C585.422546,529.627258 587.802979,523.439819 584.404785,520.126709 
	C581.232239,517.033630 575.166626,519.180664 570.389587,519.162231 
	C558.689026,519.117188 560.453064,517.982300 560.295044,529.269592 
	C560.239136,533.268005 560.023193,537.289246 560.348938,541.261658 
	C560.752625,546.184570 558.674622,547.974426 553.991028,547.355530 
	C553.172180,547.247314 552.326660,547.341492 551.007996,547.341980 
z"/>
<path fill="#000000" opacity="1.000000" stroke="none" 
	d="
M408.623657,492.011963 
	C408.623474,487.050842 408.623474,482.586945 408.623474,478.255920 
	C409.609039,477.909210 410.071442,477.604523 410.533966,477.604340 
	C428.365631,477.596741 426.162354,473.370789 426.279968,492.330780 
	C426.334717,501.155548 426.244720,509.981384 426.326843,518.805725 
	C426.405762,527.279968 430.171509,531.491394 437.600586,531.640442 
	C444.857361,531.785950 449.505829,526.965027 449.602234,518.718323 
	C449.748199,506.231659 449.645355,493.742126 449.673187,481.253906 
	C449.675354,480.278229 449.872955,479.303009 450.070831,477.495056 
	C455.046051,477.495056 459.975281,477.480774 464.904388,477.502960 
	C466.579742,477.510529 467.298920,478.560822 467.262085,480.091095 
	C466.890533,495.542480 468.950012,511.120819 466.255005,526.423340 
	C463.706299,540.895020 449.865021,549.803955 434.415558,548.120667 
	C418.414703,546.377319 408.803986,536.114441 408.656952,520.482727 
	C408.569275,511.158936 408.629913,501.833710 408.623657,492.011963 
z"/>
<path fill="#000000" opacity="1.000000" stroke="none" 
	d="
M672.250732,483.047577 
	C667.056274,493.146393 662.341919,503.085602 656.875427,512.592285 
	C652.578979,520.064026 650.791809,527.681702 651.074158,536.296387 
	C651.489746,548.979065 652.458069,547.234802 640.452759,547.331604 
	C633.033325,547.391479 632.540466,547.293945 633.145447,539.933350 
	C634.052856,528.893250 631.441162,519.119080 625.835938,509.590424 
	C619.963013,499.606842 615.123474,489.015381 609.192261,477.440704 
	C616.029968,477.440704 621.899292,477.327240 627.759766,477.505188 
	C629.684753,477.563660 630.161804,479.629761 630.854248,481.094971 
	C633.767517,487.259888 636.584290,493.470551 639.514832,499.627136 
	C640.205933,501.079102 640.588989,502.781372 642.722473,504.169342 
	C646.071899,497.066040 649.685669,490.209900 652.543701,483.052032 
	C654.394592,478.416595 657.133179,476.557190 661.959045,477.064117 
	C665.856934,477.473633 669.886841,476.443085 673.624512,477.813782 
	C674.366333,479.963196 672.961853,481.214508 672.250732,483.047577 
z"/>
</svg>